<svg xmlns="http://www.w3.org/2000/svg" viewBox="0 0 1000 470" font-family="Pretendard,'Apple SD Gothic Neo','Noto Sans KR',sans-serif">
<defs>
<marker id="mi" viewBox="0 0 10 10" refX="9" refY="5" markerWidth="7" markerHeight="7" orient="auto-start-reverse"><path d="M0,0L10,5L0,10z" fill="#26231e"/></marker>
<marker id="mg" viewBox="0 0 10 10" refX="9" refY="5" markerWidth="8" markerHeight="8" orient="auto-start-reverse"><path d="M0,0L10,5L0,10z" fill="#c9963f"/></marker>
<marker id="mr" viewBox="0 0 10 10" refX="9" refY="5" markerWidth="7" markerHeight="7" orient="auto-start-reverse"><path d="M0,0L10,5L0,10z" fill="#b4573f"/></marker>
<marker id="mgr" viewBox="0 0 10 10" refX="9" refY="5" markerWidth="7" markerHeight="7" orient="auto-start-reverse"><path d="M0,0L10,5L0,10z" fill="#5c7a52"/></marker>
</defs>
<rect width="1000" height="470" fill="#f7f3ea"/><rect x="50" y="120" width="170" height="70" rx="10" fill="#fffdf8" stroke="#d9cfb8" stroke-width="2"/><text x="135.0" y="162.0" fill="#26231e" font-size="20" font-weight="700" text-anchor="middle">등록</text><rect x="300" y="120" width="170" height="70" rx="10" fill="#fffdf8" stroke="#d9cfb8" stroke-width="2"/><text x="385.0" y="162.0" fill="#26231e" font-size="20" font-weight="700" text-anchor="middle">운영</text><rect x="550" y="120" width="190" height="70" rx="10" fill="#fffdf8" stroke="#d9cfb8" stroke-width="2"/><text x="645.0" y="162.0" fill="#26231e" font-size="20" font-weight="700" text-anchor="middle">측정 · 등급</text><path d="M645,270 L760,330 L645,390 L530,330 Z" fill="#fffdf8" stroke="#c9963f" stroke-width="3"/><text x="645" y="338" fill="#26231e" font-size="19" text-anchor="middle" font-weight="700">재심사</text><path d="M220,155 L298,155" fill="none" stroke="#26231e" stroke-width="2" marker-end="url(#mi)"/><path d="M470,155 L548,155" fill="none" stroke="#26231e" stroke-width="2" marker-end="url(#mi)"/><path d="M645,190 L645,268" fill="none" stroke="#26231e" stroke-width="2" marker-end="url(#mi)"/><text x="795" y="235" fill="#6f6a5e" font-size="14" text-anchor="middle">권한 크립 · 드리프트 · 새 역량</text><path d="M530,330 L385,330" fill="none" stroke="#5c7a52" stroke-width="2.5" marker-end="url(#mgr)"/><text x="460" y="320" fill="#6f6a5e" font-size="15" text-anchor="middle">유지</text><path d="M385,330 L385,192" fill="none" stroke="#5c7a52" stroke-width="2.5" marker-end="url(#mgr)"/><path d="M760,330 L850,330" fill="none" stroke="#c9963f" stroke-width="3.5" marker-end="url(#mg)"/><text x="805" y="320" fill="#6f6a5e" font-size="15" text-anchor="middle">종료</text><rect x="852" y="282" width="130" height="96" rx="10" fill="#16222e"/><text x="917.0" y="326.0" fill="#f3efe4" font-size="19" font-weight="700" text-anchor="middle">폐기</text><text x="917.0" y="350.0" fill="#c9b98f" font-size="13" text-anchor="middle">묘비 처리</text><text x="500" y="440" fill="#6f6a5e" font-size="15" text-anchor="middle">삭제가 아니라 묘비 처리 — 운영에서는 사라지고, 기록에서는 남는다</text></svg>
